<?xml version="1.0" standalone="no"?>
<!DOCTYPE svg PUBLIC "-//W3C//DTD SVG 20010904//EN"
 "http://www.w3.org/TR/2001/REC-SVG-20010904/DTD/svg10.dtd">
<svg version="1.0" xmlns="http://www.w3.org/2000/svg"
 width="1024.000000pt" height="1024.000000pt" viewBox="0 0 1024.000000 1024.000000"
 preserveAspectRatio="xMidYMid meet">

<g transform="translate(0.000000,1024.000000) scale(0.100000,-0.100000)"
fill="#000000" stroke="none">
<path d="M4855 10163 c-684 -42 -1295 -196 -1890 -476 -1325 -625 -2310 -1792
-2710 -3211 -204 -724 -239 -1522 -100 -2281 289 -1579 1348 -2953 2805 -3639
864 -407 1799 -560 2750 -450 1347 155 2564 845 3412 1935 413 531 735 1194
897 1849 230 933 197 1874 -100 2807 -84 264 -266 672 -420 940 -411 717
-1014 1339 -1724 1779 -799 495 -1744 760 -2680 752 -104 -1 -212 -3 -240 -5z
m485 -608 c0 -2 -74 -525 -164 -1162 -90 -637 -276 -1947 -412 -2910 l-249
-1753 -407 0 c-407 0 -408 0 -408 21 0 11 36 278 80 593 44 315 80 578 80 585
0 8 -122 11 -465 11 -365 0 -465 -3 -465 -12 0 -27 -159 -1190 -163 -1194 -2
-2 -186 -3 -408 -2 l-405 3 218 1600 c120 880 221 1606 223 1613 7 19 815 18
815 -1 0 -14 -156 -1131 -165 -1179 l-5 -28 465 0 c256 0 465 1 465 3 14 72
416 2944 413 2947 -6 7 -294 -67 -413 -107 -321 -107 -573 -231 -870 -429
-203 -134 -342 -247 -524 -424 -860 -838 -1249 -2017 -1055 -3200 216 -1318
1154 -2430 2414 -2860 268 -91 487 -141 775 -176 198 -24 608 -25 814 -1 256
29 582 105 806 186 46 17 85 29 88 27 2 -3 -21 -196 -52 -429 -31 -233 -56
-428 -56 -434 0 -13 -243 -73 -410 -102 -412 -72 -794 -86 -1225 -46 -510 48
-1022 194 -1500 429 -416 204 -787 459 -1100 756 -794 755 -1264 1704 -1381
2790 -20 191 -23 689 -5 860 50 471 147 863 313 1270 219 534 526 1001 938
1424 734 753 1699 1220 2725 1320 130 13 675 22 675 11z m330 -20 c400 -49
811 -162 1210 -332 946 -403 1752 -1164 2215 -2092 629 -1259 630 -2725 1
-3979 -475 -948 -1278 -1700 -2260 -2117 -138 -58 -336 -127 -336 -116 0 9 2
23 290 2211 190 1442 204 1542 266 1840 36 173 67 325 71 338 3 15 1 22 -8 22
-8 0 -131 -225 -289 -526 -151 -290 -283 -540 -292 -555 l-18 -29 -277 2 -277
3 -137 548 c-75 302 -140 551 -143 554 -3 4 -8 4 -11 2 -2 -3 -14 -149 -25
-325 -16 -247 -34 -418 -80 -759 -33 -242 -62 -455 -65 -473 l-6 -32 -404 0
c-376 0 -405 1 -405 17 0 20 437 3154 446 3196 l6 27 406 -2 406 -3 225 -783
c124 -430 229 -781 234 -779 4 1 210 353 456 782 l448 780 408 3 408 2 -7 -52
c-4 -29 -142 -1058 -306 -2287 -165 -1229 -298 -2237 -295 -2239 2 -3 75 67
162 154 371 373 638 778 826 1254 294 743 332 1555 110 2340 -109 386 -322
820 -562 1145 -296 401 -694 759 -1113 1001 -424 246 -886 401 -1371 463 -81
10 -150 21 -153 24 -4 3 17 169 45 369 57 404 60 418 70 418 3 0 63 -7 131
-15z"/>
</g>
</svg>
